<?xml version="1.0" encoding="UTF-8" standalone="no"?>
<svg
   viewBox="0 0 30 30"
   width="30px"
   height="30px"
   version="1.1"
   id="svg1"
   sodipodi:docname="tiktok-icon.svg"
   inkscape:version="1.4.2 (f4327f4, 2025-05-13)"
   xmlns:inkscape="http://www.inkscape.org/namespaces/inkscape"
   xmlns:sodipodi="http://sodipodi.sourceforge.net/DTD/sodipodi-0.dtd"
   xmlns="http://www.w3.org/2000/svg"
   xmlns:svg="http://www.w3.org/2000/svg">
  <defs
     id="defs1" />
  <sodipodi:namedview
     id="namedview1"
     pagecolor="#505050"
     bordercolor="#eeeeee"
     borderopacity="1"
     inkscape:showpageshadow="0"
     inkscape:pageopacity="0"
     inkscape:pagecheckerboard="0"
     inkscape:deskcolor="#505050"
     inkscape:zoom="25.766667"
     inkscape:cx="15"
     inkscape:cy="15"
     inkscape:window-width="1920"
     inkscape:window-height="991"
     inkscape:window-x="-9"
     inkscape:window-y="-9"
     inkscape:window-maximized="1"
     inkscape:current-layer="svg1" />
  <path
     id="rect1"
     style="fill:#ffffff;stroke-width:6;stroke-opacity:0.0787172"
     d="M 5.8214746,5.6274257 H 23.906857 V 24.294956 H 5.8214746 Z" />
  <path
     d="M24,4H6C4.895,4,4,4.895,4,6v18c0,1.105,0.895,2,2,2h18c1.105,0,2-0.895,2-2V6C26,4.895,25.104,4,24,4z M22.689,13.474 c-0.13,0.012-0.261,0.02-0.393,0.02c-1.495,0-2.809-0.768-3.574-1.931c0,3.049,0,6.519,0,6.577c0,2.685-2.177,4.861-4.861,4.861 C11.177,23,9,20.823,9,18.139c0-2.685,2.177-4.861,4.861-4.861c0.102,0,0.201,0.009,0.3,0.015v2.396c-0.1-0.012-0.197-0.03-0.3-0.03 c-1.37,0-2.481,1.111-2.481,2.481s1.11,2.481,2.481,2.481c1.371,0,2.581-1.08,2.581-2.45c0-0.055,0.024-11.17,0.024-11.17h2.289 c0.215,2.047,1.868,3.663,3.934,3.811V13.474z"
     id="path1" />
</svg>
