<?xml version="1.0" encoding="UTF-8" standalone="no"?>
<svg
   viewBox="0,0,256,256"
   width="30px"
   height="30px"
   fill-rule="nonzero"
   version="1.1"
   id="svg2"
   sodipodi:docname="whatsapp-icon.svg"
   inkscape:version="1.4.2 (f4327f4, 2025-05-13)"
   xmlns:inkscape="http://www.inkscape.org/namespaces/inkscape"
   xmlns:sodipodi="http://sodipodi.sourceforge.net/DTD/sodipodi-0.dtd"
   xmlns="http://www.w3.org/2000/svg"
   xmlns:svg="http://www.w3.org/2000/svg">
  <defs
     id="defs2" />
  <sodipodi:namedview
     id="namedview2"
     pagecolor="#505050"
     bordercolor="#eeeeee"
     borderopacity="1"
     inkscape:showpageshadow="0"
     inkscape:pageopacity="0"
     inkscape:pagecheckerboard="0"
     inkscape:deskcolor="#505050"
     inkscape:zoom="18.219785"
     inkscape:cx="14.846498"
     inkscape:cy="15.560008"
     inkscape:window-width="1920"
     inkscape:window-height="991"
     inkscape:window-x="-9"
     inkscape:window-y="-9"
     inkscape:window-maximized="1"
     inkscape:current-layer="svg2" />
  <path
     id="path2"
     style="fill:#ffffff;stroke-width:51.2;stroke-opacity:0.0787172"
     d="M 199.98772,122.00655 A 71.658363,71.424187 0 0 1 128.32936,193.43074 71.658363,71.424187 0 0 1 56.670998,122.00655 71.658363,71.424187 0 0 1 128.32936,50.582367 71.658363,71.424187 0 0 1 199.98772,122.00655 Z" />
  <g
     fill="#25d366"
     fill-rule="nonzero"
     stroke="none"
     stroke-width="1"
     stroke-linecap="butt"
     stroke-linejoin="miter"
     stroke-miterlimit="10"
     stroke-dasharray=""
     stroke-dashoffset="0"
     font-family="none"
     font-weight="none"
     font-size="none"
     text-anchor="none"
     style="mix-blend-mode: normal"
     id="g2">
    <g
       transform="scale(8.53333,8.53333)"
       id="g1">
      <path
         d="M15,3c-6.627,0 -12,5.373 -12,12c0,2.25121 0.63234,4.35007 1.71094,6.15039l-1.60352,5.84961l5.97461,-1.56836c1.74732,0.99342 3.76446,1.56836 5.91797,1.56836c6.627,0 12,-5.373 12,-12c0,-6.627 -5.373,-12 -12,-12zM10.89258,9.40234c0.195,0 0.39536,-0.00119 0.56836,0.00781c0.214,0.005 0.44692,0.02067 0.66992,0.51367c0.265,0.586 0.84202,2.05608 0.91602,2.20508c0.074,0.149 0.12644,0.32453 0.02344,0.51953c-0.098,0.2 -0.14897,0.32105 -0.29297,0.49805c-0.149,0.172 -0.31227,0.38563 -0.44727,0.51563c-0.149,0.149 -0.30286,0.31238 -0.13086,0.60938c0.172,0.297 0.76934,1.27064 1.65234,2.05664c1.135,1.014 2.09263,1.32561 2.39063,1.47461c0.298,0.149 0.47058,0.12578 0.64258,-0.07422c0.177,-0.195 0.74336,-0.86411 0.94336,-1.16211c0.195,-0.298 0.39406,-0.24644 0.66406,-0.14844c0.274,0.098 1.7352,0.8178 2.0332,0.9668c0.298,0.149 0.49336,0.22275 0.56836,0.34375c0.077,0.125 0.07708,0.72006 -0.16992,1.41406c-0.247,0.693 -1.45991,1.36316 -2.00391,1.41016c-0.549,0.051 -1.06136,0.24677 -3.56836,-0.74023c-3.024,-1.191 -4.93108,-4.28828 -5.08008,-4.48828c-0.149,-0.195 -1.21094,-1.61031 -1.21094,-3.07031c0,-1.465 0.76811,-2.18247 1.03711,-2.48047c0.274,-0.298 0.59492,-0.37109 0.79492,-0.37109z"
         id="path1" />
    </g>
  </g>
</svg>
